# Blender 4.4.0
# www.blender.org
mtllib Sin_nombre.mtl
o Horse
v -0.127000 -0.148743 -0.305284
v 0.127000 -0.148743 -0.305284
v -0.127000 0.105257 -0.305284
v 0.127000 0.105257 -0.305284
v -0.127000 -0.148743 0.253516
v 0.127000 -0.148743 0.253516
v -0.127000 0.105257 0.253516
v 0.127000 0.105257 0.253516
v -0.050800 -0.032261 0.053797
v 0.050800 -0.032261 0.053797
v -0.050800 0.243981 0.182611
v 0.050800 0.243981 0.182611
v -0.050800 -0.107403 0.214938
v 0.050800 -0.107403 0.214938
v -0.050800 0.168840 0.343752
v 0.050800 0.168840 0.343752
v -0.076200 0.243981 0.182611
v 0.076200 0.243981 0.182611
v -0.076200 0.359082 0.236283
v 0.076200 0.359082 0.236283
v -0.076200 0.168840 0.343752
v 0.076200 0.168840 0.343752
v -0.076200 0.283941 0.397425
v 0.076200 0.283941 0.397425
v -0.012700 0.359082 0.236283
v -0.063500 0.359082 0.236283
v -0.012700 0.428143 0.268487
v -0.063500 0.428143 0.268487
v -0.012700 0.348348 0.259304
v -0.063500 0.348348 0.259304
v -0.012700 0.417408 0.291507
v -0.063500 0.417408 0.291507
v 0.012700 0.359082 0.236283
v 0.063500 0.359082 0.236283
v 0.012700 0.428143 0.268487
v 0.063500 0.428143 0.268487
v 0.012700 0.348348 0.259304
v 0.063500 0.348348 0.259304
v 0.012700 0.417408 0.291507
v 0.063500 0.417408 0.291507
v -0.025400 0.023738 0.023858
v 0.025400 0.023738 0.023858
v -0.025400 0.392061 0.195610
v 0.025400 0.392061 0.195610
v -0.025400 0.002269 0.069899
v 0.025400 0.002269 0.069899
v -0.025400 0.370593 0.241651
v 0.025400 0.370593 0.241651
v -0.050800 0.145820 0.333018
v 0.050800 0.145820 0.333018
v -0.050800 0.260921 0.386690
v 0.050800 0.260921 0.386690
v -0.050800 0.092147 0.448119
v 0.050800 0.092147 0.448119
v -0.050800 0.207248 0.501791
v 0.050800 0.207248 0.501791
v -0.025400 -0.428143 0.151916
v -0.127000 -0.428143 0.151916
v -0.025400 -0.148743 0.151916
v -0.127000 -0.148743 0.151916
v -0.025400 -0.428143 0.253516
v -0.127000 -0.428143 0.253516
v -0.025400 -0.148743 0.253516
v -0.127000 -0.148743 0.253516
v 0.025400 -0.428143 0.151916
v 0.127000 -0.428143 0.151916
v 0.025400 -0.148743 0.151916
v 0.127000 -0.148743 0.151916
v 0.025400 -0.428143 0.253516
v 0.127000 -0.428143 0.253516
v 0.025400 -0.148743 0.253516
v 0.127000 -0.148743 0.253516
v -0.025400 -0.428143 -0.279884
v -0.127000 -0.428143 -0.279884
v -0.025400 -0.148743 -0.279884
v -0.127000 -0.148743 -0.279884
v -0.025400 -0.428143 -0.178284
v -0.127000 -0.428143 -0.178284
v -0.025400 -0.148743 -0.178284
v -0.127000 -0.148743 -0.178284
v 0.025400 -0.428143 -0.279884
v 0.127000 -0.428143 -0.279884
v 0.025400 -0.148743 -0.279884
v 0.127000 -0.148743 -0.279884
v 0.025400 -0.428143 -0.178284
v 0.127000 -0.428143 -0.178284
v 0.025400 -0.148743 -0.178284
v 0.127000 -0.148743 -0.178284
v -0.038100 -0.234202 -0.501791
v 0.038100 -0.234202 -0.501791
v -0.038100 0.073757 -0.323991
v 0.038100 0.073757 -0.323991
v -0.038100 -0.285002 -0.413803
v 0.038100 -0.285002 -0.413803
v -0.038100 0.022957 -0.236003
v 0.038100 0.022957 -0.236003
vn -0.0000 -0.0000 -1.0000
vn -0.0000 -0.0000 1.0000
vn -0.0000 -1.0000 -0.0000
vn 1.0000 -0.0000 -0.0000
vn -0.0000 1.0000 -0.0000
vn -1.0000 -0.0000 -0.0000
vn -0.0000 0.4226 -0.9063
vn -0.0000 -0.4226 0.9063
vn -0.0000 -0.9063 -0.4226
vn -0.0000 0.9063 0.4226
vn -0.0000 0.5000 -0.8660
vn -0.0000 -0.5000 0.8660
vn -0.0000 -0.8660 -0.5000
vn -0.0000 0.8660 0.5000
vt 1.000000 0.156308
vt 0.850000 0.000000
vt 1.000000 0.000000
vt 0.500000 0.000000
vt 0.343762 0.156308
vt 0.343762 0.000000
vt 0.656390 0.500000
vt 0.500000 0.156308
vt 0.500000 0.500000
vt 0.850000 0.156308
vt 0.343762 0.500000
vt 0.000000 0.000000
vt 0.000000 0.156308
vt 0.343888 0.343666
vt 0.281393 0.156575
vt 0.343888 0.156575
vt 0.171953 0.156575
vt 0.109475 0.343666
vt 0.109475 0.156575
vt 0.234103 0.453198
vt 0.171953 0.343666
vt 0.171953 0.453198
vt 0.171953 0.156575
vt 0.109475 0.453198
vt 0.000000 0.156575
vt 0.109475 0.343666
vt 0.000000 0.343666
vt 0.406183 0.687500
vt 0.312500 0.612500
vt 0.406183 0.612500
vt 0.203032 0.612500
vt 0.109292 0.687500
vt 0.109292 0.612500
vt 0.296891 0.796883
vt 0.203032 0.687500
vt 0.203032 0.796883
vt 0.312500 0.687500
vt 0.203032 0.612500
vt 0.109292 0.796883
vt 0.000000 0.687500
vt 0.109292 0.612500
vt 0.109292 0.687500
vt 0.359402 0.687500
vt 0.390644 0.734361
vt 0.390644 0.687500
vt 0.312500 0.734361
vt 0.343777 0.687500
vt 0.343777 0.734361
vt 0.375000 0.750000
vt 0.343777 0.750000
vt 0.359402 0.734361
vt 0.312500 0.750000
vt 0.296943 0.687500
vt 0.296943 0.734361
vt 1.000000 0.406192
vt 0.968732 0.156242
vt 1.000000 0.156242
vt 0.937500 0.156242
vt 0.906369 0.406192
vt 0.906369 0.156242
vt 0.968732 0.437500
vt 0.937500 0.406192
vt 0.937500 0.437500
vt 0.968732 0.406192
vt 0.906369 0.437500
vt 0.875020 0.156242
vt 0.875020 0.406192
vt 0.280426 0.531240
vt 0.218733 0.453117
vt 0.280426 0.453117
vt 0.140439 0.453117
vt 0.078194 0.531240
vt 0.078194 0.453117
vt 0.203093 0.609093
vt 0.140439 0.531240
vt 0.140439 0.609093
vt 0.218733 0.453117
vt 0.078194 0.609093
vt 0.000000 0.453117
vt 0.000000 0.531240
vt 1.000000 0.609469
vt 1.000000 0.437500
vt 0.812500 0.609469
vt 0.875000 0.437500
vt 0.812500 0.437500
vt 0.875000 0.609469
vt 0.937500 0.671840
vt 0.875000 0.671840
vt 0.937500 0.609469
vt 0.812500 0.671840
vt 0.750000 0.437500
vt 0.750000 0.609469
vt 0.875000 0.375000
vt 0.837500 0.156269
vt 0.875000 0.156269
vt 0.765463 0.156269
vt 0.718879 0.375000
vt 0.718879 0.156269
vt 0.800000 0.437500
vt 0.765463 0.375000
vt 0.765463 0.437500
vt 0.837500 0.375000
vt 0.718879 0.437500
vt 0.650000 0.375000
vt 0.718879 0.156269
vt 0.656390 0.156308
vt 0.281393 0.343666
vt 0.171953 0.343666
vt 0.234103 0.343666
vt 0.109475 0.156575
vt 0.203032 0.687500
vt 0.296869 0.687500
vt 0.000000 0.612500
vt 0.374999 0.734361
vt 0.968732 0.406192
vt 0.937500 0.406192
vt 0.218733 0.531240
vt 0.203093 0.531240
vt 0.218733 0.531240
vt 0.800000 0.375000
vt 0.650000 0.156269
s 1
usemtl 01_-_Default
f 3/1/1 2/2/1 1/3/1
f 6/4/2 7/5/2 5/6/2
f 2/7/3 5/8/3 1/9/3
f 4/10/4 6/4/4 2/2/4
f 3/11/5 8/8/5 4/9/5
f 1/12/6 7/5/6 3/13/6
f 11/14/7 10/15/7 9/16/7
f 14/17/8 15/18/8 13/19/8
f 10/20/9 13/21/9 9/22/9
f 10/15/4 16/21/4 14/23/4
f 11/24/10 16/21/10 12/22/10
f 9/25/6 15/26/6 11/27/6
f 19/28/7 18/29/7 17/30/7
f 22/31/8 23/32/8 21/33/8
f 18/34/9 21/35/9 17/36/9
f 20/37/4 22/38/4 18/29/4
f 19/39/10 24/35/10 20/36/10
f 19/40/6 21/41/6 23/42/6
f 26/43/7 27/44/7 25/45/7
f 31/46/8 30/47/8 29/37/8
f 29/48/9 26/49/9 25/50/9
f 26/43/6 32/48/6 28/51/6
f 32/48/10 27/52/10 28/50/10
f 31/46/4 25/53/4 27/54/4
f 35/44/7 34/43/7 33/45/7
f 38/47/8 39/46/8 37/37/8
f 34/49/9 37/48/9 33/50/9
f 34/43/4 40/48/4 38/47/4
f 35/52/10 40/48/10 36/50/10
f 33/53/6 39/46/6 35/54/6
f 43/55/7 42/56/7 41/57/7
f 46/58/8 47/59/8 45/60/8
f 42/61/9 45/62/9 41/63/9
f 44/64/4 46/58/4 42/56/4
f 43/65/10 48/62/10 44/63/10
f 41/66/6 47/59/6 43/67/6
f 51/68/7 50/69/7 49/70/7
f 54/71/8 55/72/8 53/73/8
f 50/74/9 53/75/9 49/76/9
f 50/77/4 56/75/4 54/71/4
f 51/78/10 56/75/10 52/76/10
f 49/79/6 55/72/6 51/80/6
f 58/63/1 59/81/1 57/82/1
f 63/83/2 62/84/2 61/85/2
f 61/86/3 58/87/3 57/88/3
f 62/84/6 60/89/6 58/63/6
f 64/86/5 59/90/5 60/88/5
f 63/83/4 57/91/4 59/92/4
f 67/81/1 66/63/1 65/82/1
f 70/84/2 71/83/2 69/85/2
f 66/87/3 69/86/3 65/88/3
f 68/89/4 70/84/4 66/63/4
f 67/90/5 72/86/5 68/88/5
f 65/91/6 71/83/6 67/92/6
f 74/63/1 75/81/1 73/82/1
f 79/83/2 78/84/2 77/85/2
f 77/86/3 74/87/3 73/88/3
f 78/84/6 76/89/6 74/63/6
f 80/86/5 75/90/5 76/88/5
f 79/83/4 73/91/4 75/92/4
f 83/81/1 82/63/1 81/82/1
f 86/84/2 87/83/2 85/85/2
f 82/87/3 85/86/3 81/88/3
f 84/89/4 86/84/4 82/63/4
f 83/90/5 88/86/5 84/88/5
f 81/91/6 87/83/6 83/92/6
f 91/93/11 90/94/11 89/95/11
f 94/96/12 95/97/12 93/98/12
f 90/99/13 93/100/13 89/101/13
f 92/102/4 94/96/4 90/94/4
f 91/103/14 96/100/14 92/101/14
f 91/104/6 93/105/6 95/97/6
f 3/1/1 4/10/1 2/2/1
f 6/4/2 8/8/2 7/5/2
f 2/7/3 6/106/3 5/8/3
f 4/10/4 8/8/4 6/4/4
f 3/11/5 7/5/5 8/8/5
f 1/12/6 5/6/6 7/5/6
f 11/14/7 12/107/7 10/15/7
f 14/17/8 16/108/8 15/18/8
f 10/20/9 14/109/9 13/21/9
f 10/15/4 12/107/4 16/21/4
f 11/24/10 15/18/10 16/21/10
f 9/25/6 13/110/6 15/26/6
f 19/28/7 20/37/7 18/29/7
f 22/31/8 24/111/8 23/32/8
f 18/34/9 22/112/9 21/35/9
f 20/37/4 24/35/4 22/38/4
f 19/39/10 23/32/10 24/35/10
f 19/40/6 17/113/6 21/41/6
f 26/43/7 28/51/7 27/44/7
f 31/46/8 32/48/8 30/47/8
f 29/48/9 30/114/9 26/49/9
f 26/43/6 30/47/6 32/48/6
f 32/48/10 31/46/10 27/52/10
f 31/46/4 29/37/4 25/53/4
f 35/44/7 36/51/7 34/43/7
f 38/47/8 40/48/8 39/46/8
f 34/49/9 38/114/9 37/48/9
f 34/43/4 36/51/4 40/48/4
f 35/52/10 39/46/10 40/48/10
f 33/53/6 37/37/6 39/46/6
f 43/55/7 44/115/7 42/56/7
f 46/58/8 48/116/8 47/59/8
f 42/61/9 46/115/9 45/62/9
f 44/64/4 48/62/4 46/58/4
f 43/65/10 47/59/10 48/62/10
f 41/66/6 45/60/6 47/59/6
f 51/68/7 52/117/7 50/69/7
f 54/71/8 56/75/8 55/72/8
f 50/74/9 54/118/9 53/75/9
f 50/77/4 52/119/4 56/75/4
f 51/78/10 55/72/10 56/75/10
f 49/79/6 53/73/6 55/72/6
f 58/63/1 60/89/1 59/81/1
f 63/83/2 64/86/2 62/84/2
f 61/86/3 62/89/3 58/87/3
f 62/84/6 64/86/6 60/89/6
f 64/86/5 63/83/5 59/90/5
f 63/83/4 61/85/4 57/91/4
f 67/81/1 68/89/1 66/63/1
f 70/84/2 72/86/2 71/83/2
f 66/87/3 70/89/3 69/86/3
f 68/89/4 72/86/4 70/84/4
f 67/90/5 71/83/5 72/86/5
f 65/91/6 69/85/6 71/83/6
f 74/63/1 76/89/1 75/81/1
f 79/83/2 80/86/2 78/84/2
f 77/86/3 78/89/3 74/87/3
f 78/84/6 80/86/6 76/89/6
f 80/86/5 79/83/5 75/90/5
f 79/83/4 77/85/4 73/91/4
f 83/81/1 84/89/1 82/63/1
f 86/84/2 88/86/2 87/83/2
f 82/87/3 86/89/3 85/86/3
f 84/89/4 88/86/4 86/84/4
f 83/90/5 87/83/5 88/86/5
f 81/91/6 85/85/6 87/83/6
f 91/93/11 92/102/11 90/94/11
f 94/96/12 96/100/12 95/97/12
f 90/99/13 94/120/13 93/100/13
f 92/102/4 96/100/4 94/96/4
f 91/103/14 95/97/14 96/100/14
f 91/104/6 89/121/6 93/105/6
