# Blender 4.4.0
# www.blender.org
mtllib golem.mtl
o Iron_Golem
v -0.228600 -0.019050 0.101600
v 0.228600 -0.019050 0.101600
v -0.228600 -0.019050 -0.177800
v 0.228600 -0.019050 -0.177800
v -0.228600 0.285750 0.101600
v 0.228600 0.285750 0.101600
v -0.228600 0.285750 -0.177800
v 0.228600 0.285750 -0.177800
v -0.101600 0.285750 0.127000
v 0.101600 0.285750 0.127000
v -0.101600 0.285750 -0.076200
v 0.101600 0.285750 -0.076200
v -0.101600 0.539750 0.127000
v 0.101600 0.539750 0.127000
v -0.101600 0.539750 -0.076200
v 0.101600 0.539750 -0.076200
v -0.025400 0.285750 0.177800
v 0.025400 0.285750 0.177800
v -0.025400 0.285750 0.127000
v 0.025400 0.285750 0.127000
v -0.025400 0.387350 0.177800
v 0.025400 0.387350 0.177800
v -0.025400 0.387350 0.127000
v 0.025400 0.387350 0.127000
v 0.228600 -0.463550 0.038100
v 0.330200 -0.463550 0.038100
v 0.228600 -0.463550 -0.114300
v 0.330200 -0.463550 -0.114300
v 0.228600 0.298450 0.038100
v 0.330200 0.298450 0.038100
v 0.228600 0.298450 -0.114300
v 0.330200 0.298450 -0.114300
v -0.330200 -0.463550 0.038100
v -0.228600 -0.463550 0.038100
v -0.330200 -0.463550 -0.114300
v -0.228600 -0.463550 -0.114300
v -0.330200 0.298450 0.038100
v -0.228600 0.298450 0.038100
v -0.330200 0.298450 -0.114300
v -0.228600 0.298450 -0.114300
v -0.190500 -0.539750 0.012700
v -0.038100 -0.539750 0.012700
v -0.190500 -0.539750 -0.114300
v -0.038100 -0.539750 -0.114300
v -0.190500 -0.133350 0.012700
v -0.038100 -0.133350 0.012700
v -0.190500 -0.133350 -0.114300
v -0.038100 -0.133350 -0.114300
v 0.038100 -0.539750 0.012700
v 0.190500 -0.539750 0.012700
v 0.038100 -0.539750 -0.114300
v 0.190500 -0.539750 -0.114300
v 0.038100 -0.133350 0.012700
v 0.190500 -0.133350 0.012700
v 0.038100 -0.133350 -0.114300
v 0.190500 -0.133350 -0.114300
v -0.114300 -0.146050 0.025400
v 0.114300 -0.146050 0.025400
v -0.114300 -0.146050 -0.101600
v 0.114300 -0.146050 -0.101600
v -0.114300 -0.019050 0.025400
v 0.114300 -0.019050 0.025400
v -0.114300 -0.019050 -0.101600
v 0.114300 -0.019050 -0.101600
vn -0.0000 -1.0000 -0.0000
vn -0.0000 1.0000 -0.0000
vn -0.0000 -0.0000 1.0000
vn 1.0000 -0.0000 -0.0000
vn -0.0000 -0.0000 -1.0000
vn -1.0000 -0.0000 -0.0000
vt 0.226512 0.687500
vt 0.362500 0.601500
vt 0.226512 0.601500
vt 0.085928 0.687500
vt 0.085928 0.601500
vt 0.226512 0.507953
vt 0.085928 0.601500
vt 0.085928 0.507953
vt 0.312500 0.507953
vt 0.453197 0.507953
vt 0.312500 0.601500
vt 0.000000 0.601500
vt 0.000000 0.507953
vt 0.125000 1.000000
vt 0.187500 0.937500
vt 0.125000 0.937500
vt 0.062500 1.000000
vt 0.062500 0.937500
vt 0.125000 0.859372
vt 0.062500 0.859372
vt 0.187500 0.859372
vt 0.250000 0.859372
vt 0.000000 0.937500
vt 0.000000 0.859372
vt 0.218761 0.996816
vt 0.234337 0.984316
vt 0.218761 0.984316
vt 0.203144 0.996816
vt 0.203144 0.984316
vt 0.218761 0.953148
vt 0.203144 0.953148
vt 0.234337 0.953148
vt 0.250000 0.953148
vt 0.187500 0.984316
vt 0.187500 0.953148
vt 0.546840 0.546463
vt 0.577762 0.500000
vt 0.546840 0.500000
vt 0.515789 0.546463
vt 0.515789 0.500000
vt 0.546840 0.265639
vt 0.515789 0.265639
vt 0.585984 0.265639
vt 0.546840 0.265639
vt 0.625000 0.265639
vt 0.585984 0.500000
vt 0.475000 0.500000
vt 0.475000 0.265639
vt 0.546747 0.835369
vt 0.577669 0.788906
vt 0.546747 0.788906
vt 0.515695 0.835369
vt 0.515695 0.788906
vt 0.546747 0.554545
vt 0.515695 0.554545
vt 0.593149 0.554545
vt 0.546747 0.554545
vt 0.624907 0.554545
vt 0.593149 0.788906
vt 0.469055 0.788906
vt 0.469055 0.554545
vt 0.375058 1.000177
vt 0.420306 0.960974
vt 0.375058 0.960974
vt 0.328032 1.000177
vt 0.328032 0.960974
vt 0.375058 0.836137
vt 0.328032 0.836137
vt 0.414090 0.836137
vt 0.460913 0.836137
vt 0.414090 0.960974
vt 0.289116 0.960974
vt 0.289116 0.836137
vt 0.554750 1.000000
vt 0.599997 0.960797
vt 0.554750 0.960797
vt 0.507724 1.000000
vt 0.507724 0.960797
vt 0.554750 0.835960
vt 0.507724 0.835960
vt 0.593782 0.835960
vt 0.640605 0.835960
vt 0.593782 0.960797
vt 0.468808 0.960797
vt 0.468808 0.835960
vt 0.117193 0.452994
vt 0.187491 0.406159
vt 0.117193 0.406159
vt 0.046899 0.452994
vt 0.046899 0.406159
vt 0.117193 0.367198
vt 0.046899 0.406159
vt 0.046899 0.367198
vt 0.162500 0.367198
vt 0.234160 0.367198
vt 0.162500 0.406159
vt 0.162500 0.367198
vt 0.000000 0.406159
vt 0.000000 0.367198
vt 0.362500 0.687500
vt 0.453197 0.601500
vt 0.085928 0.601500
vt 0.187500 1.000000
vt 0.250000 0.937500
vt 0.234337 0.996816
vt 0.218761 0.984316
vt 0.250000 0.984316
vt 0.577749 0.546463
vt 0.625000 0.500000
vt 0.577655 0.835369
vt 0.624907 0.788906
vt 0.420308 1.000177
vt 0.460913 0.960974
vt 0.600000 1.000000
vt 0.640605 0.960797
vt 0.187500 0.452994
vt 0.117193 0.406159
vt 0.162500 0.406159
vt 0.234160 0.406159
vt 0.046899 0.406159
s 1
usemtl Iron_Golem
f 3/1/1 2/2/1 1/3/1
f 6/3/2 7/4/2 5/5/2
f 2/6/3 5/7/3 1/8/3
f 4/9/4 6/3/4 2/6/4
f 3/10/5 8/11/5 4/9/5
f 1/8/6 7/12/6 3/13/6
f 11/14/1 10/15/1 9/16/1
f 14/16/2 15/17/2 13/18/2
f 10/19/3 13/18/3 9/20/3
f 12/21/4 14/16/4 10/19/4
f 11/22/5 16/15/5 12/21/5
f 9/20/6 15/23/6 11/24/6
f 19/25/1 18/26/1 17/27/1
f 22/27/2 23/28/2 21/29/2
f 18/30/3 21/29/3 17/31/3
f 20/32/4 22/27/4 18/30/4
f 19/33/5 24/26/5 20/32/5
f 17/31/6 23/34/6 19/35/6
f 27/36/1 26/37/1 25/38/1
f 30/38/2 31/39/2 29/40/2
f 26/41/3 29/40/3 25/42/3
f 28/43/4 30/38/4 26/44/4
f 27/45/5 32/46/5 28/43/5
f 25/42/6 31/47/6 27/48/6
f 35/49/1 34/50/1 33/51/1
f 38/51/2 39/52/2 37/53/2
f 34/54/3 37/53/3 33/55/3
f 36/56/4 38/51/4 34/57/4
f 35/58/5 40/59/5 36/56/5
f 33/55/6 39/60/6 35/61/6
f 43/62/1 42/63/1 41/64/1
f 46/64/2 47/65/2 45/66/2
f 42/67/3 45/66/3 41/68/3
f 44/69/4 46/64/4 42/67/4
f 43/70/5 48/71/5 44/69/5
f 41/68/6 47/72/6 43/73/6
f 51/74/1 50/75/1 49/76/1
f 54/76/2 55/77/2 53/78/2
f 50/79/3 53/78/3 49/80/3
f 52/81/4 54/76/4 50/79/4
f 51/82/5 56/83/5 52/81/5
f 49/80/6 55/84/6 51/85/6
f 59/86/1 58/87/1 57/88/1
f 62/88/2 63/89/2 61/90/2
f 58/91/3 61/92/3 57/93/3
f 60/94/4 62/88/4 58/91/4
f 59/95/5 64/96/5 60/97/5
f 57/93/6 63/98/6 59/99/6
f 3/1/1 4/100/1 2/2/1
f 6/3/2 8/1/2 7/4/2
f 2/6/3 6/3/3 5/7/3
f 4/9/4 8/11/4 6/3/4
f 3/10/5 7/101/5 8/11/5
f 1/8/6 5/102/6 7/12/6
f 11/14/1 12/103/1 10/15/1
f 14/16/2 16/14/2 15/17/2
f 10/19/3 14/16/3 13/18/3
f 12/21/4 16/15/4 14/16/4
f 11/22/5 15/104/5 16/15/5
f 9/20/6 13/18/6 15/23/6
f 19/25/1 20/105/1 18/26/1
f 22/27/2 24/25/2 23/28/2
f 18/30/3 22/106/3 21/29/3
f 20/32/4 24/26/4 22/27/4
f 19/33/5 23/107/5 24/26/5
f 17/31/6 21/29/6 23/34/6
f 27/36/1 28/108/1 26/37/1
f 30/38/2 32/36/2 31/39/2
f 26/41/3 30/38/3 29/40/3
f 28/43/4 32/46/4 30/38/4
f 27/45/5 31/109/5 32/46/5
f 25/42/6 29/40/6 31/47/6
f 35/49/1 36/110/1 34/50/1
f 38/51/2 40/49/2 39/52/2
f 34/54/3 38/51/3 37/53/3
f 36/56/4 40/59/4 38/51/4
f 35/58/5 39/111/5 40/59/5
f 33/55/6 37/53/6 39/60/6
f 43/62/1 44/112/1 42/63/1
f 46/64/2 48/62/2 47/65/2
f 42/67/3 46/64/3 45/66/3
f 44/69/4 48/71/4 46/64/4
f 43/70/5 47/113/5 48/71/5
f 41/68/6 45/66/6 47/72/6
f 51/74/1 52/114/1 50/75/1
f 54/76/2 56/74/2 55/77/2
f 50/79/3 54/76/3 53/78/3
f 52/81/4 56/83/4 54/76/4
f 51/82/5 55/115/5 56/83/5
f 49/80/6 53/78/6 55/84/6
f 59/86/1 60/116/1 58/87/1
f 62/88/2 64/86/2 63/89/2
f 58/91/3 62/117/3 61/92/3
f 60/94/4 64/118/4 62/88/4
f 59/95/5 63/119/5 64/96/5
f 57/93/6 61/120/6 63/98/6
