# Blender 4.4.0
# www.blender.org
mtllib pollo.mtl
o Chicken
v -0.076200 -0.063500 -0.152400
v 0.076200 -0.063500 -0.152400
v -0.076200 0.088900 -0.152400
v 0.076200 0.088900 -0.152400
v -0.076200 -0.063500 0.050800
v 0.076200 -0.063500 0.050800
v -0.076200 0.088900 0.050800
v 0.076200 0.088900 0.050800
v 0.076200 -0.012700 -0.127000
v 0.101600 -0.012700 -0.127000
v 0.076200 0.088900 -0.127000
v 0.101600 0.088900 -0.127000
v 0.076200 -0.012700 0.025400
v 0.101600 -0.012700 0.025400
v 0.076200 0.088900 0.025400
v 0.101600 0.088900 0.025400
v -0.025400 0.038100 0.101600
v 0.025400 0.038100 0.101600
v -0.025400 0.088900 0.101600
v 0.025400 0.088900 0.101600
v -0.025400 0.038100 0.127000
v 0.025400 0.038100 0.127000
v -0.025400 0.088900 0.127000
v 0.025400 0.088900 0.127000
v -0.050800 0.088900 0.101600
v 0.050800 0.088900 0.101600
v -0.050800 0.139700 0.101600
v 0.050800 0.139700 0.101600
v -0.050800 0.088900 0.152400
v 0.050800 0.088900 0.152400
v -0.050800 0.139700 0.152400
v 0.050800 0.139700 0.152400
v -0.050800 0.038100 0.025400
v 0.050800 0.038100 0.025400
v -0.050800 0.190500 0.025400
v 0.050800 0.190500 0.025400
v -0.050800 0.038100 0.101600
v 0.050800 0.038100 0.101600
v -0.050800 0.190500 0.101600
v 0.050800 0.190500 0.101600
v -0.076200 -0.012700 -0.127000
v -0.101600 -0.012700 -0.127000
v -0.076200 0.088900 -0.127000
v -0.101600 0.088900 -0.127000
v -0.076200 -0.012700 0.025400
v -0.101600 -0.012700 0.025400
v -0.076200 0.088900 0.025400
v -0.101600 0.088900 0.025400
v -0.025400 -0.190500 -0.050800
v -0.050800 -0.190500 -0.050800
v -0.025400 -0.063500 -0.050800
v -0.050800 -0.063500 -0.050800
v -0.025400 -0.190500 0.000000
v -0.050800 -0.190500 0.000000
v -0.076200 -0.190500 -0.050800
v -0.076200 -0.190500 0.000000
v -0.000000 -0.190500 -0.050800
v -0.000000 -0.190500 0.000000
v -0.025400 -0.190500 0.025400
v -0.050800 -0.190500 0.025400
v 0.025400 -0.190500 -0.050800
v 0.050800 -0.190500 -0.050800
v 0.025400 -0.063500 -0.050800
v 0.050800 -0.063500 -0.050800
v 0.025400 -0.190500 0.000000
v 0.050800 -0.190500 0.000000
v 0.076200 -0.190500 -0.050800
v 0.076200 -0.190500 0.000000
v -0.000000 -0.190500 -0.050800
v -0.000000 -0.190500 0.000000
v 0.025400 -0.190500 0.025400
v 0.050800 -0.190500 0.025400
vn -0.0000 -0.0000 -1.0000
vn -0.0000 -0.0000 1.0000
vn -0.0000 -1.0000 -0.0000
vn 1.0000 -0.0000 -0.0000
vn -0.0000 1.0000 -0.0000
vn -1.0000 -0.0000 -0.0000
vt 0.187500 0.765672
vt 0.280953 0.859340
vt 0.280953 0.765672
vt 0.093937 0.859340
vt 0.093937 0.765672
vt 0.375000 0.640665
vt 0.280953 0.640665
vt 0.093929 0.640665
vt 0.000000 0.765672
vt 0.000000 0.640665
vt 0.187500 0.640665
vt 0.093929 0.765672
vt 0.093929 0.640665
vt 0.500000 0.700000
vt 0.468407 0.640881
vt 0.500000 0.640881
vt 0.375273 0.640881
vt 0.359648 0.700000
vt 0.359648 0.640881
vt 0.487522 0.703139
vt 0.500000 0.796765
vt 0.500000 0.703139
vt 0.468407 0.700000
vt 0.468407 0.796765
vt 0.468407 0.703139
vt 0.593548 0.700000
vt 0.312500 0.875000
vt 0.250000 0.906269
vt 0.250000 0.875000
vt 0.312500 0.937500
vt 0.250000 0.937500
vt 0.343515 0.906269
vt 0.343515 0.875000
vt 0.218678 0.875000
vt 0.218678 0.906269
vt 0.400000 0.968762
vt 0.343781 0.937500
vt 0.400000 0.937500
vt 0.250000 0.968762
vt 0.375000 1.000000
vt 0.312500 0.968762
vt 0.312500 1.000000
vt 0.343781 0.968762
vt 0.250000 1.000000
vt 0.218839 0.937500
vt 0.218839 0.968762
vt 0.218563 0.952875
vt 0.156437 0.859443
vt 0.218563 0.859443
vt 0.109429 0.859443
vt 0.046929 0.952875
vt 0.046929 0.859443
vt 0.976122 -0.437364
vt 0.691551 -0.223935
vt 0.691551 -0.437364
vt 0.156437 0.952875
vt 0.109429 0.859443
vt 0.156437 0.859443
vt 0.046852 1.000000
vt 0.109544 0.952875
vt 0.109500 1.000000
vt 0.000000 0.859443
vt 0.000000 0.952875
vt 0.575000 0.875000
vt 0.562500 0.950000
vt 0.575000 0.950000
vt 0.531222 0.984389
vt 0.515611 0.953167
vt 0.531222 0.953167
vt 0.546833 0.953167
vt 0.500000 0.984389
vt 0.515611 0.984389
vt 0.531222 1.000000
vt 0.562500 0.875000
vt 0.187500 0.859340
vt 0.375000 0.765672
vt 0.375273 0.700000
vt 0.487500 0.796765
vt 0.593548 0.640881
vt 0.312500 0.906269
vt 0.375000 0.968762
vt 0.156437 0.952875
vt 0.109429 0.952875
vt 0.976122 -0.223935
vt 0.109429 0.952875
vt 0.546833 0.984389
vt 0.500000 0.953167
vt 0.515611 1.000000
s 1
usemtl 02_-_Default.001
f 3/1/1 2/2/1 1/3/1
f 6/1/2 7/4/2 5/5/2
f 2/6/3 5/3/3 1/7/3
f 4/8/4 6/9/4 2/10/4
f 3/11/5 8/12/5 4/13/5
f 1/7/6 7/1/6 3/11/6
f 11/14/1 10/15/1 9/16/1
f 14/17/2 15/18/2 13/19/2
f 10/20/3 13/21/3 9/22/3
f 12/23/4 14/17/4 10/15/4
f 11/20/5 16/24/5 12/25/5
f 9/16/6 15/26/6 11/14/6
f 22/27/2 23/28/2 21/29/2
f 18/30/3 21/28/3 17/31/3
f 20/32/4 22/27/4 18/33/4
f 17/34/6 23/28/6 19/35/6
f 27/36/1 26/37/1 25/38/1
f 30/30/2 31/39/2 29/31/2
f 26/40/3 29/41/3 25/42/3
f 28/43/4 30/30/4 26/37/4
f 27/44/5 32/41/5 28/42/5
f 25/45/6 31/39/6 27/46/6
f 35/47/1 34/48/1 33/49/1
f 38/50/2 39/51/2 37/52/2
f 34/53/3 37/54/3 33/55/3
f 36/56/4 38/57/4 34/58/4
f 35/59/5 40/60/5 36/61/5
f 33/62/6 39/51/6 35/63/6
f 42/15/1 43/14/1 41/16/1
f 47/18/2 46/17/2 45/19/2
f 45/21/3 42/20/3 41/22/3
f 46/17/6 44/23/6 42/15/6
f 48/24/5 43/20/5 44/25/5
f 47/26/4 41/16/4 43/14/4
f 50/64/2 51/65/2 52/66/2
f 54/67/5 49/68/5 50/69/5
f 55/70/5 54/67/5 50/69/5
f 58/71/5 49/68/5 53/72/5
f 60/73/5 53/72/5 54/67/5
f 62/64/2 63/65/2 61/74/2
f 61/68/5 66/67/5 62/69/5
f 66/67/5 67/70/5 62/69/5
f 61/68/5 70/71/5 65/72/5
f 65/72/5 72/73/5 66/67/5
f 3/1/1 4/75/1 2/2/1
f 6/1/2 8/75/2 7/4/2
f 2/6/3 6/76/3 5/3/3
f 4/8/4 8/12/4 6/9/4
f 3/11/5 7/1/5 8/12/5
f 1/7/6 5/3/6 7/1/6
f 11/14/1 12/23/1 10/15/1
f 14/17/2 16/77/2 15/18/2
f 10/20/3 14/78/3 13/21/3
f 12/23/4 16/77/4 14/17/4
f 11/20/5 15/78/5 16/24/5
f 9/16/6 13/79/6 15/26/6
f 22/27/2 24/80/2 23/28/2
f 18/30/3 22/80/3 21/28/3
f 20/32/4 24/80/4 22/27/4
f 17/34/6 21/29/6 23/28/6
f 27/36/1 28/43/1 26/37/1
f 30/30/2 32/41/2 31/39/2
f 26/40/3 30/81/3 29/41/3
f 28/43/4 32/41/4 30/30/4
f 27/44/5 31/39/5 32/41/5
f 25/45/6 29/31/6 31/39/6
f 35/47/1 36/82/1 34/48/1
f 38/50/2 40/83/2 39/51/2
f 34/53/3 38/84/3 37/54/3
f 36/56/4 40/85/4 38/57/4
f 35/59/5 39/51/5 40/60/5
f 33/62/6 37/52/6 39/51/6
f 42/15/1 44/23/1 43/14/1
f 47/18/2 48/77/2 46/17/2
f 45/21/3 46/78/3 42/20/3
f 46/17/6 48/77/6 44/23/6
f 48/24/5 47/78/5 43/20/5
f 47/26/4 45/79/4 41/16/4
f 50/64/2 49/74/2 51/65/2
f 54/67/5 53/72/5 49/68/5
f 55/70/5 56/86/5 54/67/5
f 58/71/5 57/87/5 49/68/5
f 60/73/5 59/88/5 53/72/5
f 62/64/2 64/66/2 63/65/2
f 61/68/5 65/72/5 66/67/5
f 66/67/5 68/86/5 67/70/5
f 61/68/5 69/87/5 70/71/5
f 65/72/5 71/88/5 72/73/5
