# Blender 4.4.0
# www.blender.org
mtllib Sin_nombre.mtl
o Wither
v -0.101600 -0.101600 0.050800
v 0.101600 -0.101600 0.050800
v -0.101600 -0.101600 -0.050800
v 0.101600 -0.101600 -0.050800
v -0.101600 0.203200 0.050800
v 0.101600 0.203200 0.050800
v -0.101600 0.203200 -0.050800
v 0.101600 0.203200 -0.050800
v -0.101600 0.203200 0.101600
v 0.101600 0.203200 0.101600
v -0.101600 0.203200 -0.101600
v 0.101600 0.203200 -0.101600
v -0.101600 0.406400 0.101600
v 0.101600 0.406400 0.101600
v -0.101600 0.406400 -0.101600
v 0.101600 0.406400 -0.101600
v -0.152400 -0.101600 0.025400
v -0.101600 -0.101600 0.025400
v -0.152400 -0.101600 -0.025400
v -0.101600 -0.101600 -0.025400
v -0.152400 0.203200 0.025400
v -0.101600 0.203200 0.025400
v -0.152400 0.203200 -0.025400
v -0.101600 0.203200 -0.025400
v 0.152400 -0.101600 0.025400
v 0.101600 -0.101600 0.025400
v 0.152400 -0.101600 -0.025400
v 0.101600 -0.101600 -0.025400
v 0.152400 0.203200 0.025400
v 0.101600 0.203200 0.025400
v 0.152400 0.203200 -0.025400
v 0.101600 0.203200 -0.025400
v 0.076200 -0.406400 0.025400
v 0.025400 -0.406400 0.025400
v 0.076200 -0.406400 -0.025400
v 0.025400 -0.406400 -0.025400
v 0.076200 -0.101600 0.025400
v 0.025400 -0.101600 0.025400
v 0.076200 -0.101600 -0.025400
v 0.025400 -0.101600 -0.025400
v -0.076200 -0.406400 0.025400
v -0.025400 -0.406400 0.025400
v -0.076200 -0.406400 -0.025400
v -0.025400 -0.406400 -0.025400
v -0.076200 -0.101600 0.025400
v -0.025400 -0.101600 0.025400
v -0.076200 -0.101600 -0.025400
v -0.025400 -0.101600 -0.025400
vn -0.0000 -1.0000 -0.0000
vn -0.0000 1.0000 -0.0000
vn -0.0000 -0.0000 1.0000
vn 1.0000 -0.0000 -0.0000
vn -0.0000 -0.0000 -1.0000
vn -1.0000 -0.0000 -0.0000
vt 0.437500 0.750000
vt 0.562375 0.687500
vt 0.437500 0.687500
vt 0.312500 0.750000
vt 0.312500 0.687500
vt 0.437500 0.500000
vt 0.312500 0.500000
vt 0.500000 0.500000
vt 0.625000 0.500000
vt 0.500000 0.687500
vt 0.250000 0.687500
vt 0.250000 0.500000
vt 0.375000 1.000000
vt 0.250000 0.875000
vt 0.250000 1.000000
vt 0.125000 1.000000
vt 0.125000 0.875000
vt 0.250000 0.750000
vt 0.125000 0.750000
vt 0.375000 0.750000
vt 0.500000 0.750000
vt 0.375000 0.875000
vt 0.000000 0.875000
vt 0.000000 0.750000
vt 0.687500 0.750000
vt 0.718750 0.718755
vt 0.687500 0.718755
vt 0.656250 0.750000
vt 0.656250 0.718755
vt 0.687500 0.537500
vt 0.656250 0.537500
vt 0.718750 0.537500
vt 0.750000 0.537500
vt 0.625000 0.718755
vt 0.625000 0.537500
vt 0.562500 0.750000
vt 0.625000 0.687500
vt 0.500000 0.875000
vt 0.125000 0.875000
vt 0.718750 0.750000
vt 0.750000 0.718755
s 1
usemtl Wither
f 3/1/1 2/2/1 1/3/1
f 6/3/2 7/4/2 5/5/2
f 2/6/3 5/5/3 1/7/3
f 4/8/4 6/3/4 2/6/4
f 3/9/5 8/10/5 4/8/5
f 1/7/6 7/11/6 3/12/6
f 11/13/1 10/14/1 9/15/1
f 14/14/2 15/16/2 13/17/2
f 10/18/3 13/17/3 9/19/3
f 12/20/4 14/14/4 10/18/4
f 11/21/5 16/22/5 12/20/5
f 9/19/6 15/23/6 11/24/6
f 19/25/1 18/26/1 17/27/1
f 22/27/2 23/28/2 21/29/2
f 18/30/3 21/29/3 17/31/3
f 20/32/4 22/27/4 18/30/4
f 19/33/5 24/26/5 20/32/5
f 17/31/6 23/34/6 19/35/6
f 26/26/1 27/25/1 25/27/1
f 31/28/2 30/27/2 29/29/2
f 29/29/3 26/30/3 25/31/3
f 30/27/6 28/32/6 26/30/6
f 32/26/5 27/33/5 28/32/5
f 31/34/4 25/31/4 27/35/4
f 34/26/1 35/25/1 33/27/1
f 39/28/2 38/27/2 37/29/2
f 37/29/3 34/30/3 33/31/3
f 38/27/6 36/32/6 34/30/6
f 40/26/5 35/33/5 36/32/5
f 39/34/4 33/31/4 35/35/4
f 43/25/1 42/26/1 41/27/1
f 46/27/2 47/28/2 45/29/2
f 42/30/3 45/29/3 41/31/3
f 44/32/4 46/27/4 42/30/4
f 43/33/5 48/26/5 44/32/5
f 41/31/6 47/34/6 43/35/6
f 3/1/1 4/36/1 2/2/1
f 6/3/2 8/1/2 7/4/2
f 2/6/3 6/3/3 5/5/3
f 4/8/4 8/10/4 6/3/4
f 3/9/5 7/37/5 8/10/5
f 1/7/6 5/5/6 7/11/6
f 11/13/1 12/22/1 10/14/1
f 14/14/2 16/15/2 15/16/2
f 10/18/3 14/14/3 13/17/3
f 12/20/4 16/22/4 14/14/4
f 11/21/5 15/38/5 16/22/5
f 9/19/6 13/39/6 15/23/6
f 19/25/1 20/40/1 18/26/1
f 22/27/2 24/25/2 23/28/2
f 18/30/3 22/27/3 21/29/3
f 20/32/4 24/26/4 22/27/4
f 19/33/5 23/41/5 24/26/5
f 17/31/6 21/29/6 23/34/6
f 26/26/1 28/40/1 27/25/1
f 31/28/2 32/25/2 30/27/2
f 29/29/3 30/27/3 26/30/3
f 30/27/6 32/26/6 28/32/6
f 32/26/5 31/41/5 27/33/5
f 31/34/4 29/29/4 25/31/4
f 34/26/1 36/40/1 35/25/1
f 39/28/2 40/25/2 38/27/2
f 37/29/3 38/27/3 34/30/3
f 38/27/6 40/26/6 36/32/6
f 40/26/5 39/41/5 35/33/5
f 39/34/4 37/29/4 33/31/4
f 43/25/1 44/40/1 42/26/1
f 46/27/2 48/25/2 47/28/2
f 42/30/3 46/27/3 45/29/3
f 44/32/4 48/26/4 46/27/4
f 43/33/5 47/41/5 48/26/5
f 41/31/6 45/29/6 47/34/6
